<svg width="1600" height="900" viewBox="0 0 1600 900" fill="none" xmlns="http://www.w3.org/2000/svg">
  <rect width="1600" height="900" rx="40" fill="#08101C"/>
  <rect x="36" y="36" width="1528" height="828" rx="32" fill="url(#paint0_linear)"/>
  <g opacity="0.45">
    <circle cx="1220" cy="180" r="250" fill="#2563EB"/>
    <circle cx="340" cy="130" r="190" fill="#22D3EE"/>
  </g>
  <rect x="116" y="118" width="1368" height="664" rx="36" fill="rgba(8,15,28,0.72)" stroke="rgba(248,250,252,0.14)" stroke-width="2"/>
  <rect x="166" y="168" width="260" height="20" rx="10" fill="#22D3EE"/>
  <rect x="166" y="216" width="430" height="30" rx="15" fill="#F8FAFC"/>
  <rect x="166" y="266" width="344" height="16" rx="8" fill="#94A3B8"/>
  <rect x="166" y="332" width="510" height="370" rx="28" fill="rgba(255,255,255,0.03)" stroke="rgba(248,250,252,0.10)" stroke-width="2"/>
  <rect x="736" y="332" width="204" height="170" rx="26" fill="rgba(37,99,235,0.20)" stroke="rgba(34,211,238,0.30)" stroke-width="2"/>
  <rect x="972" y="332" width="430" height="170" rx="26" fill="rgba(255,255,255,0.03)" stroke="rgba(248,250,252,0.10)" stroke-width="2"/>
  <rect x="736" y="532" width="666" height="170" rx="26" fill="rgba(255,255,255,0.03)" stroke="rgba(248,250,252,0.10)" stroke-width="2"/>
  <path d="M250 470C320 410 380 380 430 380C510 380 552 456 620 456" stroke="#22D3EE" stroke-width="12" stroke-linecap="round"/>
  <path d="M250 552C302 520 346 504 382 504C446 504 508 598 604 598" stroke="#F8FAFC" stroke-width="12" stroke-linecap="round"/>
  <path d="M250 638C312 612 370 598 424 598C482 598 538 612 592 640" stroke="#2563EB" stroke-width="12" stroke-linecap="round"/>
  <circle cx="842" cy="418" r="48" fill="rgba(34,211,238,0.20)" stroke="#22D3EE" stroke-width="14"/>
  <path d="M823 418L838 433L865 402" stroke="#F8FAFC" stroke-width="12" stroke-linecap="round" stroke-linejoin="round"/>
  <rect x="1016" y="380" width="162" height="22" rx="11" fill="#F8FAFC"/>
  <rect x="1016" y="426" width="266" height="16" rx="8" fill="#94A3B8"/>
  <rect x="776" y="578" width="176" height="22" rx="11" fill="#22D3EE"/>
  <rect x="776" y="622" width="340" height="18" rx="9" fill="#F8FAFC"/>
  <rect x="776" y="658" width="250" height="14" rx="7" fill="#94A3B8"/>
  <rect x="1164" y="578" width="178" height="88" rx="22" fill="rgba(37,99,235,0.18)"/>
  <defs>
    <linearGradient id="paint0_linear" x1="120" y1="88" x2="1448" y2="806" gradientUnits="userSpaceOnUse">
      <stop stop-color="#0E1930"/>
      <stop offset="1" stop-color="#0A1323"/>
    </linearGradient>
  </defs>
</svg>
