<svg width="1600" height="900" viewBox="0 0 1600 900" fill="none" xmlns="http://www.w3.org/2000/svg">
  <rect width="1600" height="900" rx="40" fill="#09111D"/>
  <rect x="38" y="38" width="1524" height="824" rx="32" fill="url(#paint0_linear)"/>
  <circle cx="1290" cy="190" r="220" fill="#22D3EE" fill-opacity="0.32"/>
  <circle cx="280" cy="170" r="180" fill="#2563EB" fill-opacity="0.26"/>
  <rect x="150" y="118" width="712" height="666" rx="34" fill="rgba(8,15,28,0.72)" stroke="rgba(248,250,252,0.14)" stroke-width="2"/>
  <rect x="930" y="118" width="520" height="666" rx="34" fill="rgba(8,15,28,0.62)" stroke="rgba(248,250,252,0.14)" stroke-width="2"/>
  <rect x="198" y="168" width="188" height="22" rx="11" fill="#22D3EE"/>
  <rect x="198" y="216" width="330" height="30" rx="15" fill="#F8FAFC"/>
  <rect x="198" y="278" width="616" height="16" rx="8" fill="#94A3B8"/>
  <rect x="198" y="314" width="554" height="16" rx="8" fill="#94A3B8" fill-opacity="0.85"/>
  <rect x="198" y="382" width="616" height="112" rx="24" fill="rgba(255,255,255,0.03)"/>
  <rect x="198" y="530" width="290" height="196" rx="24" fill="rgba(37,99,235,0.16)" stroke="rgba(34,211,238,0.28)" stroke-width="2"/>
  <rect x="524" y="530" width="290" height="196" rx="24" fill="rgba(255,255,255,0.03)"/>
  <circle cx="1190" cy="264" r="88" stroke="#22D3EE" stroke-width="16"/>
  <circle cx="1190" cy="264" r="44" fill="#22D3EE" fill-opacity="0.26"/>
  <rect x="1014" y="420" width="352" height="22" rx="11" fill="#F8FAFC"/>
  <rect x="1014" y="470" width="286" height="16" rx="8" fill="#94A3B8"/>
  <rect x="1014" y="520" width="318" height="74" rx="22" fill="rgba(255,255,255,0.04)"/>
  <rect x="1014" y="624" width="200" height="18" rx="9" fill="#22D3EE"/>
  <rect x="1014" y="662" width="272" height="18" rx="9" fill="#2563EB" fill-opacity="0.8"/>
  <defs>
    <linearGradient id="paint0_linear" x1="164" y1="94" x2="1462" y2="812" gradientUnits="userSpaceOnUse">
      <stop stop-color="#0D1930"/>
      <stop offset="1" stop-color="#0A1323"/>
    </linearGradient>
  </defs>
</svg>
