<svg width="1600" height="900" viewBox="0 0 1600 900" fill="none" xmlns="http://www.w3.org/2000/svg">
  <rect width="1600" height="900" rx="40" fill="#09111F"/>
  <rect x="34" y="34" width="1532" height="832" rx="32" fill="url(#paint0_linear)"/>
  <g opacity="0.55">
    <circle cx="1260" cy="180" r="220" fill="#22D3EE"/>
    <circle cx="1360" cy="90" r="180" fill="#2563EB"/>
    <circle cx="280" cy="720" r="260" fill="#1D4ED8"/>
  </g>
  <g opacity="0.24" stroke="#F8FAFC">
    <path d="M120 724C270 563.333 441 492.667 633 512C825 531.333 1000.33 464 1159 310C1285.67 187.333 1399.33 130.667 1500 140" stroke-width="2"/>
    <path d="M120 674C270 513.333 441 442.667 633 462C825 481.333 1000.33 414 1159 260C1285.67 137.333 1399.33 80.6667 1500 90" stroke-width="2"/>
  </g>
  <rect x="132" y="126" width="640" height="540" rx="28" fill="rgba(8,15,28,0.72)" stroke="rgba(248,250,252,0.16)" stroke-width="2"/>
  <rect x="168" y="166" width="270" height="18" rx="9" fill="#22D3EE" fill-opacity="0.7"/>
  <rect x="168" y="212" width="436" height="30" rx="15" fill="#F8FAFC"/>
  <rect x="168" y="262" width="374" height="18" rx="9" fill="#94A3B8"/>
  <rect x="168" y="320" width="566" height="160" rx="24" fill="rgba(37,99,235,0.18)" stroke="rgba(34,211,238,0.35)" stroke-width="2"/>
  <path d="M222 432L342 352L452 406L592 270L680 328" stroke="#6EE7F9" stroke-width="14" stroke-linecap="round" stroke-linejoin="round"/>
  <circle cx="222" cy="432" r="16" fill="#F8FAFC"/>
  <circle cx="342" cy="352" r="16" fill="#22D3EE"/>
  <circle cx="452" cy="406" r="16" fill="#22D3EE"/>
  <circle cx="592" cy="270" r="18" fill="#F8FAFC"/>
  <circle cx="680" cy="328" r="16" fill="#22D3EE"/>
  <rect x="168" y="518" width="190" height="92" rx="22" fill="rgba(248,250,252,0.06)"/>
  <rect x="390" y="518" width="150" height="92" rx="22" fill="rgba(248,250,252,0.06)"/>
  <rect x="572" y="518" width="124" height="92" rx="22" fill="rgba(248,250,252,0.06)"/>
  <rect x="890" y="164" width="436" height="210" rx="28" fill="rgba(8,15,28,0.62)" stroke="rgba(248,250,252,0.14)" stroke-width="2"/>
  <rect x="930" y="206" width="142" height="18" rx="9" fill="#22D3EE"/>
  <rect x="930" y="252" width="272" height="28" rx="14" fill="#F8FAFC"/>
  <rect x="930" y="304" width="320" height="14" rx="7" fill="#94A3B8"/>
  <rect x="930" y="336" width="218" height="14" rx="7" fill="#94A3B8" fill-opacity="0.8"/>
  <rect x="884" y="432" width="520" height="286" rx="34" fill="rgba(8,15,28,0.68)" stroke="rgba(248,250,252,0.16)" stroke-width="2"/>
  <circle cx="1040" cy="574" r="90" stroke="#22D3EE" stroke-width="18"/>
  <circle cx="1040" cy="574" r="52" fill="#22D3EE" fill-opacity="0.28"/>
  <path d="M1040 574L1100 530" stroke="#F8FAFC" stroke-width="16" stroke-linecap="round"/>
  <rect x="1168" y="500" width="180" height="26" rx="13" fill="#F8FAFC"/>
  <rect x="1168" y="544" width="128" height="16" rx="8" fill="#94A3B8"/>
  <rect x="1168" y="586" width="212" height="18" rx="9" fill="#22D3EE" fill-opacity="0.88"/>
  <rect x="1168" y="628" width="164" height="18" rx="9" fill="#2563EB" fill-opacity="0.74"/>
  <defs>
    <linearGradient id="paint0_linear" x1="193" y1="108" x2="1380" y2="814" gradientUnits="userSpaceOnUse">
      <stop stop-color="#0D1A30"/>
      <stop offset="1" stop-color="#0A1324"/>
    </linearGradient>
  </defs>
</svg>
